0
SECTION
2
HEADER
9
$INSUNITS
70
4
9
$ACADVER
1
AC1014
9
$HANDSEED
5
FFFF
0
ENDSEC
0
SECTION
2
TABLES
0
TABLE
2
VPORT
5
8
100
AcDbSymbolTable
0
ENDTAB
0
TABLE
2
LTYPE
5
5
100
AcDbSymbolTable
0
LTYPE
5
14
100
AcDbSymbolTableRecord
100
AcDbLinetypeTableRecord
2
BYBLOCK
70
0
0
LTYPE
5
15
100
AcDbSymbolTableRecord
100
AcDbLinetypeTableRecord
2
BYLAYER
70
0
0
ENDTAB
0
TABLE
2
LAYER
5
2
100
AcDbSymbolTable
70
2
0
LAYER
5
50
100
AcDbSymbolTableRecord
100
AcDbLayerTableRecord
2
0
70
0
6
CONTINUOUS
0
ENDTAB
0
TABLE
2
STYLE
5
3
100
AcDbSymbolTable
70
1
0
STYLE
5
11
100
AcDbSymbolTableRecord
100
AcDbTextStyleTableRecord
2
STANDARD
70
0
0
ENDTAB
0
TABLE
2
VIEW
5
6
100
AcDbSymbolTable
70
0
0
ENDTAB
0
TABLE
2
UCS
5
7
100
AcDbSymbolTable
70
0
0
ENDTAB
0
TABLE
2
APPID
5
9
100
AcDbSymbolTable
70
2
0
APPID
5
12
100
AcDbSymbolTableRecord
100
AcDbRegAppTableRecord
2
ACAD
70
0
0
ENDTAB
0
TABLE
2
DIMSTYLE
5
A
100
AcDbSymbolTable
70
1
0
ENDTAB
0
TABLE
2
BLOCK_RECORD
5
1
100
AcDbSymbolTable
70
1
0
BLOCK_RECORD
5
1F
100
AcDbSymbolTableRecord
100
AcDbBlockTableRecord
2
*MODEL_SPACE
0
BLOCK_RECORD
5
1B
100
AcDbSymbolTableRecord
100
AcDbBlockTableRecord
2
*PAPER_SPACE
0
ENDTAB
0
ENDSEC
0
SECTION
2
BLOCKS
0
BLOCK
5
20
100
AcDbEntity
100
AcDbBlockBegin
2
*MODEL_SPACE
0
ENDBLK
5
21
100
AcDbEntity
100
AcDbBlockEnd
0
BLOCK
5
1C
100
AcDbEntity
100
AcDbBlockBegin
2
*PAPER_SPACE
0
ENDBLK
5
1D
100
AcDbEntity
100
AcDbBlockEnd
0
ENDSEC
0
SECTION
2
ENTITIES
0
LWPOLYLINE
5
100
100
AcDbEntity
8
0
100
AcDbPolyline
90
56
70
1
43
0.0
10
-66.68772697448756
20
29.848980925976463
10
-66.68772697448756
20
26.848980925976456
10
-76.687726974487532
20
26.848980925976456
10
-76.687726974487532
20
29.848980925976463
10
-86.687727272510728
20
29.848980925976466
10
-86.687727272510699
20
26.848980925976459
10
-96.687727421522297
20
26.848980925976463
10
-96.687727421522283
20
29.848980925976466
10
-106.68772757053388
20
29.84898092597647
10
-106.68772757053389
20
26.848980925976463
10
-116.68772697448742
20
26.84898092597647
10
-116.68772697448742
20
33.848980925976484
10
-106.68772757053388
20
33.848980925976477
10
-106.68772757053389
20
36.848980925976484
10
-96.687727421522297
20
36.848980925976484
10
-96.687727421522311
20
33.848980925976477
10
-86.687727272510728
20
33.848980925976477
10
-86.687727272510728
20
36.848980925976484
10
-76.687727272510756
20
36.848980925976477
10
-76.687727272510756
20
33.848980925976477
10
-66.68772697448756
20
33.84898092597647
10
-66.68772697448756
20
36.848980925976477
10
-56.68772682547597
20
36.84898092597647
10
-56.68772682547597
20
33.84898092597647
10
-46.687726974487603
20
33.848980925976463
10
-46.687726974487603
20
36.84898092597647
10
-36.687726974487632
20
36.848980925976463
10
-36.687726974487632
20
33.848980925976463
10
-26.687726378441212
20
33.848980925976463
10
-26.687726378441212
20
36.848980925976463
10
-16.687726229429625
20
36.848980925976463
10
-16.687726229429629
20
33.848980925976456
10
-6.6877260804180425
20
33.848980925976456
10
-6.6877260804180416
20
36.848980925976463
10
3.3122739195819326
20
36.848980925976456
10
3.3122739195819317
20
33.848980925976456
10
13.312274217605136
20
33.848980925976448
10
13.312274217605147
20
36.848980925976456
10
23.31227302551223
20
36.848980925976448
10
23.312273025512216
20
29.848980925976434
10
13.31227421760514
20
29.848980925976445
10
13.312274217605138
20
26.848980925976434
10
3.3122742176051547
20
26.848980925976438
10
3.3122742176051565
20
29.848980925976441
10
-6.6877260804180407
20
29.848980925976445
10
-6.6877260804180416
20
26.848980925976438
10
-16.687726229429629
20
26.848980925976441
10
-16.687726229429629
20
29.848980925976445
10
-26.687726378441212
20
29.848980925976456
10
-26.687726378441212
20
26.848980925976441
10
-36.687726527452796
20
26.848980925976448
10
-36.687726527452796
20
29.848980925976456
10
-46.687726974487603
20
29.848980925976459
10
-46.687726974487603
20
26.848980925976452
10
-56.687726974487582
20
26.848980925976452
10
-56.687726974487582
20
29.848980925976459
0
ENDSEC
0
SECTION
2
OBJECTS
0
DICTIONARY
5
C
100
AcDbDictionary
3
ACAD_GROUP
350
D
3
ACAD_MLINESTYLE
350
17
0
DICTIONARY
5
D
100
AcDbDictionary
0
DICTIONARY
5
1A
330
C
100
AcDbDictionary
0
DICTIONARY
5
17
100
AcDbDictionary
0
ENDSEC
0
EOF
