0
SECTION
2
HEADER
9
$INSUNITS
70
4
9
$ACADVER
1
AC1014
9
$HANDSEED
5
FFFF
0
ENDSEC
0
SECTION
2
TABLES
0
TABLE
2
VPORT
5
8
100
AcDbSymbolTable
0
ENDTAB
0
TABLE
2
LTYPE
5
5
100
AcDbSymbolTable
0
LTYPE
5
14
100
AcDbSymbolTableRecord
100
AcDbLinetypeTableRecord
2
BYBLOCK
70
0
0
LTYPE
5
15
100
AcDbSymbolTableRecord
100
AcDbLinetypeTableRecord
2
BYLAYER
70
0
0
ENDTAB
0
TABLE
2
LAYER
5
2
100
AcDbSymbolTable
70
2
0
LAYER
5
50
100
AcDbSymbolTableRecord
100
AcDbLayerTableRecord
2
0
70
0
6
CONTINUOUS
0
ENDTAB
0
TABLE
2
STYLE
5
3
100
AcDbSymbolTable
70
1
0
STYLE
5
11
100
AcDbSymbolTableRecord
100
AcDbTextStyleTableRecord
2
STANDARD
70
0
0
ENDTAB
0
TABLE
2
VIEW
5
6
100
AcDbSymbolTable
70
0
0
ENDTAB
0
TABLE
2
UCS
5
7
100
AcDbSymbolTable
70
0
0
ENDTAB
0
TABLE
2
APPID
5
9
100
AcDbSymbolTable
70
2
0
APPID
5
12
100
AcDbSymbolTableRecord
100
AcDbRegAppTableRecord
2
ACAD
70
0
0
ENDTAB
0
TABLE
2
DIMSTYLE
5
A
100
AcDbSymbolTable
70
1
0
ENDTAB
0
TABLE
2
BLOCK_RECORD
5
1
100
AcDbSymbolTable
70
1
0
BLOCK_RECORD
5
1F
100
AcDbSymbolTableRecord
100
AcDbBlockTableRecord
2
*MODEL_SPACE
0
BLOCK_RECORD
5
1B
100
AcDbSymbolTableRecord
100
AcDbBlockTableRecord
2
*PAPER_SPACE
0
ENDTAB
0
ENDSEC
0
SECTION
2
BLOCKS
0
BLOCK
5
20
100
AcDbEntity
100
AcDbBlockBegin
2
*MODEL_SPACE
0
ENDBLK
5
21
100
AcDbEntity
100
AcDbBlockEnd
0
BLOCK
5
1C
100
AcDbEntity
100
AcDbBlockBegin
2
*PAPER_SPACE
0
ENDBLK
5
1D
100
AcDbEntity
100
AcDbBlockEnd
0
ENDSEC
0
SECTION
2
ENTITIES
0
LWPOLYLINE
5
100
100
AcDbEntity
8
0
100
AcDbPolyline
90
56
70
1
43
0.0
10
-18.040807454181319
20
-20.1510186195387
10
-18.040807454181277
20
-17.1510186195387
10
-28.040807454181188
20
-17.151018619538487
10
-28.04080745418123
20
-20.151018619538487
10
-38.040807454181142
20
-20.151018619538284
10
-38.040807454181092
20
-17.151018619538281
10
-48.040807454181014
20
-17.151018619538075
10
-48.040807454181056
20
-20.151018619538075
10
-58.040807454180971
20
-20.151018619537862
10
-58.040807454180936
20
-17.151018619537858
10
-68.04080745418085
20
-17.151018619537652
10
-68.040807454181646
20
-13.151018619537318
10
-65.040807454181561
20
-13.151018619537393
10
-65.04080745418149
20
-3.151018619537393
10
-68.040807454181461
20
-3.1510186195373144
10
-68.040807454181319
20
6.8489813804626856
10
-65.040807454181305
20
6.8489813804626127
10
-65.040807454181177
20
16.848981380462618
10
-68.040807454181163
20
16.848981380462693
10
-68.040807454181035
20
26.848981380462689
10
-65.040807454181007
20
26.848981380462607
10
-65.040807454180865
20
33.848981380462419
10
-58.040807454181753
20
33.848981380462263
10
-58.040807454181696
20
36.848981380462419
10
-48.040807454181774
20
36.848981380462014
10
-48.040807454181831
20
33.848981380462007
10
-38.040807454181916
20
33.848981380461758
10
-38.040807454181859
20
36.848981380461765
10
-28.040807454181959
20
36.848981380461524
10
-28.040807454182008
20
33.84898138046151
10
-18.040807454182083
20
33.848981380461275
10
-18.04080745418204
20
36.848981380461289
10
-8.0408074541821346
20
36.848981380461034
10
-8.0408074541821968
20
33.848981380460891
10
1.9591925458177251
20
33.848981380460636
10
1.959192545817795
20
36.848981380460629
10
11.9591925458177
20
36.848981380460387
10
11.959192545817629
20
33.848981380460387
10
18.959192545817778
20
33.848981380460216
10
18.959192545817679
20
26.848981380460238
10
21.959192545817441
20
26.84898138046016
10
21.959192545817366
20
16.84898138046016
10
18.959192545817487
20
16.848981380460234
10
18.959192545817324
20
6.8489813804602342
10
21.95919254581721
20
6.8489813804601596
10
21.959192545817029
20
-3.1510186195398311
10
18.95919254581715
20
-3.1510186195397605
10
18.959192545816986
20
-13.151018619539759
10
21.959192545816855
20
-13.151018619539832
10
21.959192545817587
20
-17.151018619539535
10
11.959192545818482
20
-17.151018619539325
10
11.959192545818421
20
-20.151018619539329
10
1.9591925458185067
20
-20.151018619539119
10
1.9591925458185522
20
-17.151018619539116
10
-8.0408074541813619
20
-17.15101861953891
10
-8.0408074541814063
20
-20.15101861953891
0
ENDSEC
0
SECTION
2
OBJECTS
0
DICTIONARY
5
C
100
AcDbDictionary
3
ACAD_GROUP
350
D
3
ACAD_MLINESTYLE
350
17
0
DICTIONARY
5
D
100
AcDbDictionary
0
DICTIONARY
5
1A
330
C
100
AcDbDictionary
0
DICTIONARY
5
17
100
AcDbDictionary
0
ENDSEC
0
EOF
