0
SECTION
2
HEADER
9
$INSUNITS
70
4
9
$ACADVER
1
AC1014
9
$HANDSEED
5
FFFF
0
ENDSEC
0
SECTION
2
TABLES
0
TABLE
2
VPORT
5
8
100
AcDbSymbolTable
0
ENDTAB
0
TABLE
2
LTYPE
5
5
100
AcDbSymbolTable
0
LTYPE
5
14
100
AcDbSymbolTableRecord
100
AcDbLinetypeTableRecord
2
BYBLOCK
70
0
0
LTYPE
5
15
100
AcDbSymbolTableRecord
100
AcDbLinetypeTableRecord
2
BYLAYER
70
0
0
ENDTAB
0
TABLE
2
LAYER
5
2
100
AcDbSymbolTable
70
2
0
LAYER
5
50
100
AcDbSymbolTableRecord
100
AcDbLayerTableRecord
2
0
70
0
6
CONTINUOUS
0
ENDTAB
0
TABLE
2
STYLE
5
3
100
AcDbSymbolTable
70
1
0
STYLE
5
11
100
AcDbSymbolTableRecord
100
AcDbTextStyleTableRecord
2
STANDARD
70
0
0
ENDTAB
0
TABLE
2
VIEW
5
6
100
AcDbSymbolTable
70
0
0
ENDTAB
0
TABLE
2
UCS
5
7
100
AcDbSymbolTable
70
0
0
ENDTAB
0
TABLE
2
APPID
5
9
100
AcDbSymbolTable
70
2
0
APPID
5
12
100
AcDbSymbolTableRecord
100
AcDbRegAppTableRecord
2
ACAD
70
0
0
ENDTAB
0
TABLE
2
DIMSTYLE
5
A
100
AcDbSymbolTable
70
1
0
ENDTAB
0
TABLE
2
BLOCK_RECORD
5
1
100
AcDbSymbolTable
70
1
0
BLOCK_RECORD
5
1F
100
AcDbSymbolTableRecord
100
AcDbBlockTableRecord
2
*MODEL_SPACE
0
BLOCK_RECORD
5
1B
100
AcDbSymbolTableRecord
100
AcDbBlockTableRecord
2
*PAPER_SPACE
0
ENDTAB
0
ENDSEC
0
SECTION
2
BLOCKS
0
BLOCK
5
20
100
AcDbEntity
100
AcDbBlockBegin
2
*MODEL_SPACE
0
ENDBLK
5
21
100
AcDbEntity
100
AcDbBlockEnd
0
BLOCK
5
1C
100
AcDbEntity
100
AcDbBlockBegin
2
*PAPER_SPACE
0
ENDBLK
5
1D
100
AcDbEntity
100
AcDbBlockEnd
0
ENDSEC
0
SECTION
2
ENTITIES
0
LWPOLYLINE
5
100
100
AcDbEntity
8
0
100
AcDbPolyline
90
92
70
1
43
0.0
10
-96.687736511225324
20
-21.959195137023357
10
-96.687736511228763
20
-18.929698487448512
10
-106.68773651122851
20
-18.929698487448491
10
-106.68773651122507
20
-21.959195137023887
10
-116.68773651122871
20
-21.959195137025201
10
-116.68773651122535
20
-11.959195137023837
10
-113.68773651122487
20
-11.959195137023816
10
-113.68773651122495
20
-1.9591951370239347
10
-116.68773651122541
20
-1.9591951370239402
10
-116.68773651122547
20
8.0408048629759499
10
-113.68773651122501
20
8.0408048629759534
10
-113.6877365112251
20
18.040804862975843
10
-116.68773651122551
20
18.040804862975847
10
-116.68773651122561
20
28.040804862975737
10
-113.68773651122515
20
28.040804862975737
10
-113.68773651122521
20
38.040804862975627
10
-116.68773651122565
20
38.040804862975627
10
-116.68773651122571
20
48.040804862975499
10
-113.68773651122522
20
48.040804862975492
10
-113.68773651122531
20
58.040804862975378
10
-116.68773651122629
20
58.040804862975378
10
-116.68773651122976
20
68.040804862973815
10
-113.68773651122538
20
68.040804862974312
10
-113.68773651122535
20
65.04080486297434
10
-106.68773651122656
20
65.040804862974369
10
-106.6877365112266
20
68.040804862974312
10
-96.687736511226845
20
68.040804862974497
10
-96.687736511226802
20
65.040804862974355
10
-86.687736511227058
20
65.040804862974355
10
-86.687736511227087
20
68.040804862974483
10
-76.687736511227371
20
68.040804862974724
10
-76.687736511227314
20
65.040804862974355
10
-66.687736511227513
20
65.040804862974355
10
-66.687736511227598
20
68.040804862974724
10
-56.687736511227875
20
68.040804862974738
10
-56.687736511227804
20
65.040804862974767
10
-46.687736511228017
20
65.040804862974767
10
-46.687736511228088
20
68.040804862974767
10
-36.687736511228373
20
68.040804862974767
10
-36.687736511228302
20
65.040804862974795
10
-26.687736511228515
20
65.040804862974809
10
-26.687736511228586
20
68.040804862974724
10
-16.68773651122887
20
68.040804862974724
10
-16.687736511228799
20
65.040804862974767
10
-6.687736511229013
20
65.040804862974767
10
-6.6877365112290832
20
68.040804862974724
10
3.312263488770633
20
68.040804862974724
10
3.3122634887707036
20
65.040804862974767
10
13.31226348877049
20
65.040804862974767
10
13.312263488770419
20
68.040804862974724
10
23.312263488766718
20
68.040804862974639
10
23.312263488766757
20
58.040804862976209
10
20.312263488767883
20
58.040804862976216
10
20.312263488767929
20
48.040804862976323
10
23.312263488767002
20
48.040804862976323
10
23.312263488767396
20
38.040804862976429
10
20.312263488767954
20
38.040804862976437
10
20.312263488768071
20
28.040804862976543
10
23.312263488767286
20
28.04080486297654
10
23.312263488767467
20
18.04080486297665
10
20.312263488768167
20
18.040804862976646
10
20.312263488768213
20
8.0408048629767581
10
23.312263488767641
20
8.0408048629767634
10
23.312263488767609
20
-1.9591951370231264
10
20.312263488768238
20
-1.9591951370231209
10
20.312263488768284
20
-11.95919513702302
10
23.312263488767712
20
-11.959195137023006
10
23.312263488767822
20
-21.95919513702437
10
20.312263488768316
20
-21.959195137022917
10
20.312263488768391
20
-18.959195137022952
10
13.312263488768572
20
-18.95919513702292
10
13.312263488768572
20
-21.959195137023034
10
3.3122634887687847
20
-21.959195137023023
10
3.3122634887687852
20
-18.959195137023045
10
-6.6877365112309297
20
-18.959195137023062
10
-6.6877365112309306
20
-21.959195137023105
10
-16.687736511230717
20
-21.959195137023094
10
-16.687736511230717
20
-18.959195137023134
10
-26.687736511230433
20
-18.959195137023151
10
-26.687736511230433
20
-21.959195137023301
10
-36.68773651123022
20
-21.959195137023325
10
-36.68773651123022
20
-18.959195137023347
10
-46.687736511229936
20
-18.959195137023329
10
-46.687736511229936
20
-21.959195137023318
10
-56.687736511229723
20
-21.959195137023308
10
-56.687736511229723
20
-18.959195137023329
10
-66.687736511229446
20
-18.959195137023347
10
-66.687736511229446
20
-21.959195137023318
10
-76.687736511225808
20
-21.959195137023055
10
-76.687736511229261
20
-18.929698487448508
10
-86.687736511229019
20
-18.929698487448491
10
-86.687736511225566
20
-21.959195137023691
0
ENDSEC
0
SECTION
2
OBJECTS
0
DICTIONARY
5
C
100
AcDbDictionary
3
ACAD_GROUP
350
D
3
ACAD_MLINESTYLE
350
17
0
DICTIONARY
5
D
100
AcDbDictionary
0
DICTIONARY
5
1A
330
C
100
AcDbDictionary
0
DICTIONARY
5
17
100
AcDbDictionary
0
ENDSEC
0
EOF
