0
SECTION
2
HEADER
9
$INSUNITS
70
4
9
$ACADVER
1
AC1014
9
$HANDSEED
5
FFFF
0
ENDSEC
0
SECTION
2
TABLES
0
TABLE
2
VPORT
5
8
100
AcDbSymbolTable
0
ENDTAB
0
TABLE
2
LTYPE
5
5
100
AcDbSymbolTable
0
LTYPE
5
14
100
AcDbSymbolTableRecord
100
AcDbLinetypeTableRecord
2
BYBLOCK
70
0
0
LTYPE
5
15
100
AcDbSymbolTableRecord
100
AcDbLinetypeTableRecord
2
BYLAYER
70
0
0
ENDTAB
0
TABLE
2
LAYER
5
2
100
AcDbSymbolTable
70
2
0
LAYER
5
50
100
AcDbSymbolTableRecord
100
AcDbLayerTableRecord
2
0
70
0
6
CONTINUOUS
0
ENDTAB
0
TABLE
2
STYLE
5
3
100
AcDbSymbolTable
70
1
0
STYLE
5
11
100
AcDbSymbolTableRecord
100
AcDbTextStyleTableRecord
2
STANDARD
70
0
0
ENDTAB
0
TABLE
2
VIEW
5
6
100
AcDbSymbolTable
70
0
0
ENDTAB
0
TABLE
2
UCS
5
7
100
AcDbSymbolTable
70
0
0
ENDTAB
0
TABLE
2
APPID
5
9
100
AcDbSymbolTable
70
2
0
APPID
5
12
100
AcDbSymbolTableRecord
100
AcDbRegAppTableRecord
2
ACAD
70
0
0
ENDTAB
0
TABLE
2
DIMSTYLE
5
A
100
AcDbSymbolTable
70
1
0
ENDTAB
0
TABLE
2
BLOCK_RECORD
5
1
100
AcDbSymbolTable
70
1
0
BLOCK_RECORD
5
1F
100
AcDbSymbolTableRecord
100
AcDbBlockTableRecord
2
*MODEL_SPACE
0
BLOCK_RECORD
5
1B
100
AcDbSymbolTableRecord
100
AcDbBlockTableRecord
2
*PAPER_SPACE
0
ENDTAB
0
ENDSEC
0
SECTION
2
BLOCKS
0
BLOCK
5
20
100
AcDbEntity
100
AcDbBlockBegin
2
*MODEL_SPACE
0
ENDBLK
5
21
100
AcDbEntity
100
AcDbBlockEnd
0
BLOCK
5
1C
100
AcDbEntity
100
AcDbBlockBegin
2
*PAPER_SPACE
0
ENDBLK
5
1D
100
AcDbEntity
100
AcDbBlockEnd
0
ENDSEC
0
SECTION
2
ENTITIES
0
LWPOLYLINE
5
100
100
AcDbEntity
8
0
100
AcDbPolyline
90
56
70
1
43
0.0
10
28.040804788470822
20
-20.151018142697335
10
28.040804788470822
20
-17.151018142697428
10
18.040804788471082
20
-17.151018142697431
10
18.040804788471082
20
-20.151018142697342
10
8.0408047884713447
20
-20.151018142697339
10
8.0408047884713501
20
-17.151018142697424
10
-1.9591952115283917
20
-17.151018142697431
10
-1.9591952115283928
20
-20.151018142697346
10
-11.959195211528131
20
-20.151018142697346
10
-11.959195211528153
20
-17.151018142697438
10
-21.959195211527888
20
-17.151018142697442
10
-21.959195211529074
20
-13.151018142700492
10
-18.959195211529149
20
-13.151018142700494
10
-18.959195211529153
20
-3.1510181427007966
10
-21.959195211529074
20
-3.1510181427007966
10
-21.95919521152905
20
6.8489818572989023
10
-18.959195211529131
20
6.8489818572989023
10
-18.959195211529153
20
16.848981857298604
10
-21.959195211529074
20
16.8489818572986
10
-21.959195211529064
20
26.848981857298302
10
-18.959195211529142
20
26.848981857298302
10
-18.959195211529135
20
33.848981857298085
10
-11.959195211530512
20
33.848981857299094
10
-11.959195211530512
20
36.848981857299009
10
-1.959195211530772
20
36.848981857298995
10
-1.9591952115307865
20
33.84898185729908
10
8.0408047884689555
20
33.848981857299066
10
8.0408047884689644
20
36.848981857298988
10
18.040804788468702
20
36.848981857298973
10
18.040804788468694
20
33.848981857299066
10
28.040804788468435
20
33.848981857299044
10
28.040804788468439
20
36.848981857298952
10
38.040804788468179
20
36.848981857298938
10
38.040804788468179
20
33.84898185729903
10
48.040804788467923
20
33.848981857299016
10
48.040804788467923
20
36.848981857298931
10
58.040804788467668
20
36.848981857298917
10
58.040804788467668
20
33.848981857299009
10
65.040804788464612
20
33.848981857297986
10
65.040804788464612
20
26.848981857298199
10
68.040804788464527
20
26.848981857298206
10
68.040804788464555
20
16.848981857298504
10
65.040804788464627
20
16.848981857298501
10
65.040804788464627
20
6.8489818572988028
10
68.040804788464555
20
6.8489818572988046
10
68.040804788466744
20
-3.1510181427008943
10
65.040804788466829
20
-3.1510181427008934
10
65.040804788466829
20
-13.151018142700593
10
68.040804788466758
20
-13.151018142700595
10
68.040804788462722
20
-17.151018142697406
10
58.040804788470048
20
-17.15101814269741
10
58.040804788470048
20
-20.151018142697321
10
48.040804788470304
20
-20.151018142697325
10
48.040804788470304
20
-17.151018142697421
10
38.04080478847056
20
-17.151018142697428
10
38.04080478847056
20
-20.151018142697335
0
CIRCLE
5
101
100
AcDbEntity
8
0
100
AcDbCircle
10
23.040804788469114
20
6.8489818573005383
30
0
40
9.9999999999997407
210
5.2906362218935134e-31
220
5.9164567891575798e-31
230
1
0
ENDSEC
0
SECTION
2
OBJECTS
0
DICTIONARY
5
C
100
AcDbDictionary
3
ACAD_GROUP
350
D
3
ACAD_MLINESTYLE
350
17
0
DICTIONARY
5
D
100
AcDbDictionary
0
DICTIONARY
5
1A
330
C
100
AcDbDictionary
0
DICTIONARY
5
17
100
AcDbDictionary
0
ENDSEC
0
EOF
