0
SECTION
2
HEADER
9
$INSUNITS
70
4
9
$ACADVER
1
AC1014
9
$HANDSEED
5
FFFF
0
ENDSEC
0
SECTION
2
TABLES
0
TABLE
2
VPORT
5
8
100
AcDbSymbolTable
0
ENDTAB
0
TABLE
2
LTYPE
5
5
100
AcDbSymbolTable
0
LTYPE
5
14
100
AcDbSymbolTableRecord
100
AcDbLinetypeTableRecord
2
BYBLOCK
70
0
0
LTYPE
5
15
100
AcDbSymbolTableRecord
100
AcDbLinetypeTableRecord
2
BYLAYER
70
0
0
ENDTAB
0
TABLE
2
LAYER
5
2
100
AcDbSymbolTable
70
2
0
LAYER
5
50
100
AcDbSymbolTableRecord
100
AcDbLayerTableRecord
2
0
70
0
6
CONTINUOUS
0
ENDTAB
0
TABLE
2
STYLE
5
3
100
AcDbSymbolTable
70
1
0
STYLE
5
11
100
AcDbSymbolTableRecord
100
AcDbTextStyleTableRecord
2
STANDARD
70
0
0
ENDTAB
0
TABLE
2
VIEW
5
6
100
AcDbSymbolTable
70
0
0
ENDTAB
0
TABLE
2
UCS
5
7
100
AcDbSymbolTable
70
0
0
ENDTAB
0
TABLE
2
APPID
5
9
100
AcDbSymbolTable
70
2
0
APPID
5
12
100
AcDbSymbolTableRecord
100
AcDbRegAppTableRecord
2
ACAD
70
0
0
ENDTAB
0
TABLE
2
DIMSTYLE
5
A
100
AcDbSymbolTable
70
1
0
ENDTAB
0
TABLE
2
BLOCK_RECORD
5
1
100
AcDbSymbolTable
70
1
0
BLOCK_RECORD
5
1F
100
AcDbSymbolTableRecord
100
AcDbBlockTableRecord
2
*MODEL_SPACE
0
BLOCK_RECORD
5
1B
100
AcDbSymbolTableRecord
100
AcDbBlockTableRecord
2
*PAPER_SPACE
0
ENDTAB
0
ENDSEC
0
SECTION
2
BLOCKS
0
BLOCK
5
20
100
AcDbEntity
100
AcDbBlockBegin
2
*MODEL_SPACE
0
ENDBLK
5
21
100
AcDbEntity
100
AcDbBlockEnd
0
BLOCK
5
1C
100
AcDbEntity
100
AcDbBlockBegin
2
*PAPER_SPACE
0
ENDBLK
5
1D
100
AcDbEntity
100
AcDbBlockEnd
0
ENDSEC
0
SECTION
2
ENTITIES
0
LWPOLYLINE
5
100
100
AcDbEntity
8
0
100
AcDbPolyline
90
74
70
1
43
0.0
10
-23.312263488758713
20
16.848979949994934
10
-20.312263488758653
20
16.848979949994501
10
-20.312263488757214
20
26.848979949994277
10
-13.312263488760223
20
26.848979949993709
10
-13.312263488759763
20
29.848979949993666
10
-3.3122634887595832
20
29.848979949992088
10
-3.3122634887600464
20
26.848979949992149
10
6.6877365112401312
20
26.848979949990582
10
6.6877365112405922
20
29.848979949990522
10
16.687736511240772
20
29.848979949988927
10
16.687736511240306
20
26.848979949988987
10
26.687736511240487
20
26.84897994998742
10
26.687736511240949
20
29.84897994998736
10
36.687736511241127
20
29.848979949985765
10
36.687736511240701
20
26.848979949985825
10
46.687736511240878
20
26.848979949984258
10
46.68773651124134
20
29.848979949984198
10
56.687736511242797
20
29.848979949982638
10
56.687736511242335
20
26.848979949982699
10
66.68773651124252
20
26.848979949981079
10
66.687736511242974
20
29.848979949981018
10
76.687736511243145
20
29.848979949979476
10
76.68773651124269
20
26.848979949979537
10
86.687736511242861
20
26.848979949977917
10
86.68773651124333
20
29.848979949977856
10
96.687736511243514
20
29.848979949976314
10
96.687736511243045
20
26.848979949976375
10
106.68773651124323
20
26.848979949974755
10
106.68773651124367
20
29.848979949974712
10
116.68773651124647
20
29.848979949974716
10
116.68773651124783
20
26.848979949974186
10
113.68773651124776
20
26.848979949974613
10
113.68773651124634
20
16.848979949974833
10
116.68773651124638
20
16.848979949974407
10
116.68773651124494
20
6.8489799499746384
10
113.68773651124485
20
6.8489799499750648
10
113.68773651124232
20
-3.1510200500247127
10
116.68773651124239
20
-3.1510200500251386
10
116.68773651124093
20
-13.151020050024908
10
113.68773651124087
20
-13.151020050024481
10
113.68773651124152
20
-17.151020050021209
10
106.68773651123956
20
-17.151020050020456
10
106.68773651123911
20
-20.151020050020403
10
96.687736511238924
20
-20.151020050018822
10
96.687736511239393
20
-17.151020050018879
10
86.687736511239208
20
-17.151020050017301
10
86.687736511238739
20
-20.151020050017241
10
76.687736511238569
20
-20.15102005001566
10
76.687736511239024
20
-17.15102005001572
10
66.687736511238853
20
-17.151020050014143
10
66.687736511238398
20
-20.151020050014083
10
56.687736511238214
20
-20.151020050012502
10
56.687736511238676
20
-17.151020050012558
10
46.687736511238462
20
-17.151020050010981
10
46.687736511238001
20
-20.151020050010928
10
36.687736511237823
20
-20.151020050009343
10
36.687736511238249
20
-17.151020050009404
10
26.687736511238072
20
-17.151020050007823
10
26.68773651123761
20
-20.151020050007766
10
16.687736511237432
20
-20.151020050006181
10
16.687736511237894
20
-17.151020050006245
10
6.6877365112377172
20
-17.151020050004668
10
6.6877365112372562
20
-20.151020050004607
10
-3.3122634887629236
20
-20.151020050003027
10
-3.3122634887624591
20
-17.151020050003083
10
-13.312263488762639
20
-17.151020050001506
10
-13.312263488763083
20
-20.151020050001449
10
-20.312263488763911
20
-20.151020050003943
10
-20.312263488762934
20
-13.15102005000481
10
-23.312263488762998
20
-13.151020050004384
10
-23.312263488761555
20
-3.1510200500046044
10
-20.312263488761499
20
-3.151020050005032
10
-20.312263488760092
20
6.8489799499947379
10
-23.312263488760156
20
6.8489799499951634
0
ENDSEC
0
SECTION
2
OBJECTS
0
DICTIONARY
5
C
100
AcDbDictionary
3
ACAD_GROUP
350
D
3
ACAD_MLINESTYLE
350
17
0
DICTIONARY
5
D
100
AcDbDictionary
0
DICTIONARY
5
1A
330
C
100
AcDbDictionary
0
DICTIONARY
5
17
100
AcDbDictionary
0
ENDSEC
0
EOF
