0
SECTION
2
HEADER
9
$INSUNITS
70
4
9
$ACADVER
1
AC1014
9
$HANDSEED
5
FFFF
0
ENDSEC
0
SECTION
2
TABLES
0
TABLE
2
VPORT
5
8
100
AcDbSymbolTable
0
ENDTAB
0
TABLE
2
LTYPE
5
5
100
AcDbSymbolTable
0
LTYPE
5
14
100
AcDbSymbolTableRecord
100
AcDbLinetypeTableRecord
2
BYBLOCK
70
0
0
LTYPE
5
15
100
AcDbSymbolTableRecord
100
AcDbLinetypeTableRecord
2
BYLAYER
70
0
0
ENDTAB
0
TABLE
2
LAYER
5
2
100
AcDbSymbolTable
70
2
0
LAYER
5
50
100
AcDbSymbolTableRecord
100
AcDbLayerTableRecord
2
0
70
0
6
CONTINUOUS
0
ENDTAB
0
TABLE
2
STYLE
5
3
100
AcDbSymbolTable
70
1
0
STYLE
5
11
100
AcDbSymbolTableRecord
100
AcDbTextStyleTableRecord
2
STANDARD
70
0
0
ENDTAB
0
TABLE
2
VIEW
5
6
100
AcDbSymbolTable
70
0
0
ENDTAB
0
TABLE
2
UCS
5
7
100
AcDbSymbolTable
70
0
0
ENDTAB
0
TABLE
2
APPID
5
9
100
AcDbSymbolTable
70
2
0
APPID
5
12
100
AcDbSymbolTableRecord
100
AcDbRegAppTableRecord
2
ACAD
70
0
0
ENDTAB
0
TABLE
2
DIMSTYLE
5
A
100
AcDbSymbolTable
70
1
0
ENDTAB
0
TABLE
2
BLOCK_RECORD
5
1
100
AcDbSymbolTable
70
1
0
BLOCK_RECORD
5
1F
100
AcDbSymbolTableRecord
100
AcDbBlockTableRecord
2
*MODEL_SPACE
0
BLOCK_RECORD
5
1B
100
AcDbSymbolTableRecord
100
AcDbBlockTableRecord
2
*PAPER_SPACE
0
ENDTAB
0
ENDSEC
0
SECTION
2
BLOCKS
0
BLOCK
5
20
100
AcDbEntity
100
AcDbBlockBegin
2
*MODEL_SPACE
0
ENDBLK
5
21
100
AcDbEntity
100
AcDbBlockEnd
0
BLOCK
5
1C
100
AcDbEntity
100
AcDbBlockBegin
2
*PAPER_SPACE
0
ENDBLK
5
1D
100
AcDbEntity
100
AcDbBlockEnd
0
ENDSEC
0
SECTION
2
ENTITIES
0
LWPOLYLINE
5
100
100
AcDbEntity
8
0
100
AcDbPolyline
90
3
70
1
43
0.0
10
-2.4842308461590235
20
-0.22916390002040155
10
8.5157693177535148
20
9.7708362489911309
10
-2.4842308461591451
20
19.770836398002555
0
LWPOLYLINE
5
101
100
AcDbEntity
8
0
100
AcDbPolyline
90
3
70
1
43
0.0
10
-6.4842309057637397
20
19.77083639800253
10
-16.484231054775126
20
9.7708362489909995
10
-6.4842309057636092
20
-0.22916390002041709
0
LWPOLYLINE
5
102
100
AcDbEntity
8
0
100
AcDbPolyline
90
74
70
1
43
0.0
10
20.312273025519559
20
-13.15101766586575
10
20.312273025519559
20
-17.151017665865041
10
13.312273025520163
20
-17.151017665865243
10
13.312273025520156
20
-20.151017665865197
10
3.3122730255203119
20
-20.151017665865169
10
3.3122730255203159
20
-17.151017665865215
10
-6.6877184761749628
20
-17.151017665865179
10
-6.6877184761749708
20
-20.151017665865144
10
-16.687718476174812
20
-20.151017665865115
10
-16.687718476174808
20
-17.151017665865151
10
-26.687718476174652
20
-17.151017665865119
10
-26.687718476174656
20
-20.15101766586508
10
-36.687718476174503
20
-20.151017665865055
10
-36.687718476174489
20
-17.151017665865098
10
-46.687726974478906
20
-17.151017665865055
10
-46.687726974478906
20
-20.151017665865027
10
-56.687718476174204
20
-20.151017665864991
10
-56.687718476174197
20
-17.151017665865027
10
-66.687718476174027
20
-17.151017665864995
10
-66.687718476174012
20
-20.151017665864956
10
-76.687718476173885
20
-20.151017665864931
10
-76.687718476173899
20
-17.151017665864973
10
-86.687718476173714
20
-17.151017665864941
10
-86.687718476173728
20
-20.151017665864895
10
-96.687718476173586
20
-20.151017665864867
10
-96.687718476173586
20
-17.151017665864913
10
-106.68771847617342
20
-17.151017665864877
10
-106.68771847617342
20
-20.151017665864835
10
-113.68772697447622
20
-20.151017665865009
10
-113.68772697447623
20
-13.151017665864906
10
-116.68772697447619
20
-13.151017665864904
10
-116.68772697447619
20
-3.1510176658650386
10
-113.68772697447623
20
-3.1510176658650413
10
-113.68772697447619
20
6.8489823341348268
10
-116.68772697447615
20
6.8489823341348295
10
-116.68772697447615
20
16.8489823341347
10
-113.68772697447619
20
16.8489823341347
10
-113.68772697447619
20
26.848982334134565
10
-106.68772697447864
20
26.848982334134917
10
-106.68772697447864
20
29.848982334134874
10
-96.687726974478792
20
29.84898233413487
10
-96.687726974478778
20
26.848982334134917
10
-86.687726974478934
20
26.848982334134913
10
-86.687726974478934
20
29.84898233413487
10
-76.687726974479091
20
29.848982334134849
10
-76.687726974479091
20
26.848982334134888
10
-66.687726974479247
20
26.848982334134874
10
-66.687726974479261
20
29.848982334134831
10
-56.687726974479411
20
29.848982334134845
10
-56.687726974479403
20
26.848982334134885
10
-46.687726974479553
20
26.848982334134863
10
-46.687726974479553
20
29.848982334134824
10
-36.687726974479709
20
29.848982334134821
10
-36.687726974479709
20
26.848982334134863
10
-26.687726974479865
20
26.848982334134842
10
-26.687726974479862
20
29.848982334134803
10
-16.687726974480018
20
29.848982334134799
10
-16.687726974480015
20
26.848982334134842
10
-6.6877269744801717
20
26.848982334134838
10
-6.6877269744801726
20
29.848982334134799
10
3.3122730255196715
20
29.848982334134774
10
3.3122730255196697
20
26.848982334134817
10
13.312273025519502
20
26.848982334134813
10
13.312273025519508
20
29.848982334134774
10
23.312273025519985
20
29.848982334134092
10
23.312273025519485
20
26.84898233413368
10
20.312273025519538
20
26.84898233413368
10
20.312273025519531
20
16.848982334133819
10
23.312273025519485
20
16.848982334133815
10
23.312273025519485
20
6.8489823341339431
10
20.312273025519538
20
6.8489823341339466
10
20.312273025519328
20
-3.1510176658659224
10
23.312273025519282
20
-3.151017665865925
10
23.312273025519509
20
-13.15101766586575
0
ENDSEC
0
SECTION
2
OBJECTS
0
DICTIONARY
5
C
100
AcDbDictionary
3
ACAD_GROUP
350
D
3
ACAD_MLINESTYLE
350
17
0
DICTIONARY
5
D
100
AcDbDictionary
0
DICTIONARY
5
1A
330
C
100
AcDbDictionary
0
DICTIONARY
5
17
100
AcDbDictionary
0
ENDSEC
0
EOF
