0
SECTION
2
HEADER
9
$INSUNITS
70
4
9
$ACADVER
1
AC1014
9
$HANDSEED
5
FFFF
0
ENDSEC
0
SECTION
2
TABLES
0
TABLE
2
VPORT
5
8
100
AcDbSymbolTable
0
ENDTAB
0
TABLE
2
LTYPE
5
5
100
AcDbSymbolTable
0
LTYPE
5
14
100
AcDbSymbolTableRecord
100
AcDbLinetypeTableRecord
2
BYBLOCK
70
0
0
LTYPE
5
15
100
AcDbSymbolTableRecord
100
AcDbLinetypeTableRecord
2
BYLAYER
70
0
0
ENDTAB
0
TABLE
2
LAYER
5
2
100
AcDbSymbolTable
70
2
0
LAYER
5
50
100
AcDbSymbolTableRecord
100
AcDbLayerTableRecord
2
0
70
0
6
CONTINUOUS
0
ENDTAB
0
TABLE
2
STYLE
5
3
100
AcDbSymbolTable
70
1
0
STYLE
5
11
100
AcDbSymbolTableRecord
100
AcDbTextStyleTableRecord
2
STANDARD
70
0
0
ENDTAB
0
TABLE
2
VIEW
5
6
100
AcDbSymbolTable
70
0
0
ENDTAB
0
TABLE
2
UCS
5
7
100
AcDbSymbolTable
70
0
0
ENDTAB
0
TABLE
2
APPID
5
9
100
AcDbSymbolTable
70
2
0
APPID
5
12
100
AcDbSymbolTableRecord
100
AcDbRegAppTableRecord
2
ACAD
70
0
0
ENDTAB
0
TABLE
2
DIMSTYLE
5
A
100
AcDbSymbolTable
70
1
0
ENDTAB
0
TABLE
2
BLOCK_RECORD
5
1
100
AcDbSymbolTable
70
1
0
BLOCK_RECORD
5
1F
100
AcDbSymbolTableRecord
100
AcDbBlockTableRecord
2
*MODEL_SPACE
0
BLOCK_RECORD
5
1B
100
AcDbSymbolTableRecord
100
AcDbBlockTableRecord
2
*PAPER_SPACE
0
ENDTAB
0
ENDSEC
0
SECTION
2
BLOCKS
0
BLOCK
5
20
100
AcDbEntity
100
AcDbBlockBegin
2
*MODEL_SPACE
0
ENDBLK
5
21
100
AcDbEntity
100
AcDbBlockEnd
0
BLOCK
5
1C
100
AcDbEntity
100
AcDbBlockBegin
2
*PAPER_SPACE
0
ENDBLK
5
1D
100
AcDbEntity
100
AcDbBlockEnd
0
ENDSEC
0
SECTION
2
ENTITIES
0
LWPOLYLINE
5
100
100
AcDbEntity
8
0
100
AcDbPolyline
90
88
70
1
43
0.0
10
-23.312271962773337
20
28.040809969542948
10
-20.312271962773387
20
28.040809969542977
10
-20.312271962773622
20
38.04080996954297
10
-23.312271962773544
20
38.040809969542941
10
-23.312271962773799
20
48.040809969542948
10
-20.312271962773856
20
48.040809969542963
10
-20.312271962774084
20
58.040809969542984
10
-23.312271962774041
20
58.040809969542963
10
-23.312271962774229
20
65.040809969542977
10
-13.312271962774423
20
65.040809969543204
10
-13.312271962774513
20
68.040809969543218
10
-3.3122719627747097
20
68.04080996954346
10
-3.31227196277462
20
65.04080996954346
10
6.6877280372251855
20
65.040809969543687
10
6.6877280372250958
20
68.040809969543673
10
16.687728037224897
20
68.040809969543915
10
16.687728037224989
20
65.040809969543915
10
26.687728037224794
20
65.040809969544156
10
26.687728037224705
20
68.040809969544156
10
36.68772803722451
20
68.040809969544384
10
36.687728037224602
20
65.040809969544384
10
46.687728037224403
20
65.040809969544625
10
46.687728037224318
20
68.04080996954464
10
56.687728037224119
20
68.040809969544881
10
56.687728037224204
20
65.040809969544867
10
66.687728037223991
20
65.04080996954508
10
66.687728037223891
20
68.040809969545094
10
76.687728037223692
20
68.040809969545336
10
76.68772803722382
20
65.040809969545336
10
86.687728037223621
20
65.040809969545563
10
86.687728037223494
20
68.040809969545563
10
96.687728037223309
20
68.040809969545805
10
96.687728037223422
20
65.040809969545805
10
106.68772803722322
20
65.040809969546046
10
106.68772803722311
20
68.040809969546046
10
116.6877280372229
20
68.040809969547837
10
116.68772803722064
20
58.040809969548064
10
113.68772803722067
20
58.040809969548057
10
113.68772803722055
20
48.040809969548029
10
116.68772803722051
20
48.040809969548057
10
116.68772803722078
20
38.040809969548086
10
113.68772803722081
20
38.040809969548057
10
113.68772803722108
20
28.040809969548029
10
116.68772803722104
20
28.040809969548057
10
116.68772803722128
20
18.040809969548082
10
113.68772803722131
20
18.040809969548057
10
113.68772803722159
20
8.0408099695480324
10
116.68772803722155
20
8.0408099695480573
10
116.68772803722177
20
-1.9591900304519181
10
113.68772803722182
20
-1.9591900304519427
10
113.68772803722207
20
-11.959190030451968
10
116.68772803722203
20
-11.959190030451943
10
116.68772803722499
20
-18.959190030451889
10
106.68772803722517
20
-18.959190030451971
10
106.68772803722524
20
-21.959190030451971
10
96.68772803722544
20
-21.959190030452014
10
96.687728037225355
20
-18.959190030452032
10
86.687728037225554
20
-18.959190030452078
10
86.687728037225625
20
-21.959190030452078
10
76.687728037225824
20
-21.959190030452156
10
76.687728037225753
20
-18.959190030452138
10
66.687728037225952
20
-18.959190030452184
10
66.687728037226037
20
-21.95919003045222
10
56.68772803722625
20
-21.959190030452262
10
56.687728037226165
20
-18.959190030452245
10
46.687728037226357
20
-18.959190030452326
10
46.687728037226449
20
-21.959190030452326
10
36.687728037226641
20
-21.959190030452369
10
36.687728037226549
20
-18.959190030452387
10
26.687728037226748
20
-18.959190030452433
10
26.687728037226837
20
-21.959190030452433
10
16.687728037227036
20
-21.959190030452511
10
16.687728037226943
20
-18.959190030452493
10
6.6877280372271377
20
-18.95919003045254
10
6.6877280372272274
20
-21.959190030452575
10
-3.3122719627725763
20
-21.959190030452618
10
-3.312271962772666
20
-18.9591900304526
10
-13.312271962772472
20
-18.959190030452682
10
-13.312271962772382
20
-21.959190030452682
10
-23.312271962772193
20
-21.959190030453293
10
-23.312271962772378
20
-11.959190030457048
10
-20.3122719627724
20
-11.959190030457023
10
-20.312271962772627
20
-1.959190030457034
10
-23.312271962772584
20
-1.9591900304570586
10
-23.31227196277284
20
8.040809969542952
10
-20.312271962772897
20
8.0408099695429769
10
-20.312271962773124
20
18.040809969542966
10
-23.312271962773082
20
18.040809969542941
0
LWPOLYLINE
5
101
100
AcDbEntity
8
0
100
AcDbPolyline
90
4
70
1
43
0.0
10
-18.312271962772524
20
-11.959190030453259
10
111.68772803722493
20
-11.959190030452191
10
111.68772803722325
20
58.040809969547809
10
-18.312271962774226
20
58.040809969546743
0
ENDSEC
0
SECTION
2
OBJECTS
0
DICTIONARY
5
C
100
AcDbDictionary
3
ACAD_GROUP
350
D
3
ACAD_MLINESTYLE
350
17
0
DICTIONARY
5
D
100
AcDbDictionary
0
DICTIONARY
5
1A
330
C
100
AcDbDictionary
0
DICTIONARY
5
17
100
AcDbDictionary
0
ENDSEC
0
EOF
