0
SECTION
2
HEADER
9
$INSUNITS
70
4
9
$ACADVER
1
AC1014
9
$HANDSEED
5
FFFF
0
ENDSEC
0
SECTION
2
TABLES
0
TABLE
2
VPORT
5
8
100
AcDbSymbolTable
0
ENDTAB
0
TABLE
2
LTYPE
5
5
100
AcDbSymbolTable
0
LTYPE
5
14
100
AcDbSymbolTableRecord
100
AcDbLinetypeTableRecord
2
BYBLOCK
70
0
0
LTYPE
5
15
100
AcDbSymbolTableRecord
100
AcDbLinetypeTableRecord
2
BYLAYER
70
0
0
ENDTAB
0
TABLE
2
LAYER
5
2
100
AcDbSymbolTable
70
2
0
LAYER
5
50
100
AcDbSymbolTableRecord
100
AcDbLayerTableRecord
2
0
70
0
6
CONTINUOUS
0
ENDTAB
0
TABLE
2
STYLE
5
3
100
AcDbSymbolTable
70
1
0
STYLE
5
11
100
AcDbSymbolTableRecord
100
AcDbTextStyleTableRecord
2
STANDARD
70
0
0
ENDTAB
0
TABLE
2
VIEW
5
6
100
AcDbSymbolTable
70
0
0
ENDTAB
0
TABLE
2
UCS
5
7
100
AcDbSymbolTable
70
0
0
ENDTAB
0
TABLE
2
APPID
5
9
100
AcDbSymbolTable
70
2
0
APPID
5
12
100
AcDbSymbolTableRecord
100
AcDbRegAppTableRecord
2
ACAD
70
0
0
ENDTAB
0
TABLE
2
DIMSTYLE
5
A
100
AcDbSymbolTable
70
1
0
ENDTAB
0
TABLE
2
BLOCK_RECORD
5
1
100
AcDbSymbolTable
70
1
0
BLOCK_RECORD
5
1F
100
AcDbSymbolTableRecord
100
AcDbBlockTableRecord
2
*MODEL_SPACE
0
BLOCK_RECORD
5
1B
100
AcDbSymbolTableRecord
100
AcDbBlockTableRecord
2
*PAPER_SPACE
0
ENDTAB
0
ENDSEC
0
SECTION
2
BLOCKS
0
BLOCK
5
20
100
AcDbEntity
100
AcDbBlockBegin
2
*MODEL_SPACE
0
ENDBLK
5
21
100
AcDbEntity
100
AcDbBlockEnd
0
BLOCK
5
1C
100
AcDbEntity
100
AcDbBlockBegin
2
*PAPER_SPACE
0
ENDBLK
5
1D
100
AcDbEntity
100
AcDbBlockEnd
0
ENDSEC
0
SECTION
2
ENTITIES
0
LWPOLYLINE
5
100
100
AcDbEntity
8
0
100
AcDbPolyline
90
4
70
1
43
0.0
10
73.414163126335865
20
-144.96258153473968
10
-14.985836873662812
20
-144.96258153474065
10
-14.985836873657528
20
-208.96258153474076
10
73.414163126337925
20
-208.9625815347398
0
LWPOLYLINE
5
101
100
AcDbEntity
8
0
100
AcDbPolyline
90
60
70
1
43
0.0
10
82.014163126332619
20
-134.96258153474218
10
82.014163126333472
20
-221.96258153473991
10
75.014163126336967
20
-221.96258153473968
10
75.014163126336911
20
-218.96258153473968
10
65.014163126337138
20
-218.96258153473974
10
65.014163126337195
20
-221.96258153473968
10
55.014163126337436
20
-221.9625815347398
10
55.014163126337394
20
-218.9625815347398
10
45.014163126337614
20
-218.96258153473985
10
45.014163126337678
20
-221.96258153473988
10
35.014163126337898
20
-221.96258153473997
10
35.014163126337813
20
-218.96258153473994
10
25.01416312633804
20
-218.96258153473997
10
25.014163126338133
20
-221.96258153473997
10
15.014163126338362
20
-221.96258153474014
10
15.014163126338275
20
-218.96258153474011
10
5.0141631263385005
20
-218.96258153474014
10
5.0141631263385626
20
-221.96258153474017
10
-4.9858368736612118
20
-221.96258153474025
10
-4.9858368736612615
20
-218.96258153474022
10
-14.985836873661038
20
-218.96258153474031
10
-14.985836873660979
20
-221.96258153474031
10
-24.985836873660755
20
-221.96258153474093
10
-24.985836873660933
20
-211.96258153474474
10
-21.985836873660961
20
-211.96258153474471
10
-21.985836873661203
20
-201.96258153474474
10
-24.985836873661146
20
-201.96258153474474
10
-24.985836873661395
20
-191.96258153474477
10
-21.985836873661459
20
-191.96258153474474
10
-21.9858368736617
20
-181.96258153474477
10
-24.985836873661643
20
-181.96258153474477
10
-24.985836873661892
20
-171.9625815347448
10
-21.985836873661956
20
-171.96258153474477
10
-21.985836873662198
20
-161.9625815347448
10
-24.985836873662141
20
-161.96258153474488
10
-24.985836873662389
20
-151.96258153474491
10
-21.985836873662418
20
-151.96258153474486
10
-21.985836873662659
20
-141.96258153474486
10
-24.985836873662606
20
-141.96258153474491
10
-24.985836873662763
20
-134.96258153474488
10
-14.985836873662988
20
-134.96258153474466
10
-14.985836873663118
20
-131.96258153474463
10
-4.9858368736633469
20
-131.9625815347444
10
-4.9858368736632261
20
-134.9625815347444
10
5.01416312633655
20
-134.96258153474417
10
5.0141631263364541
20
-131.96258153474415
10
15.014163126336227
20
-131.96258153474389
10
15.014163126336314
20
-134.96258153474389
10
25.014163126336086
20
-134.96258153474366
10
25.014163126335994
20
-131.96258153474363
10
35.014163126335767
20
-131.96258153474338
10
35.014163126335887
20
-134.96258153474341
10
45.01416312633566
20
-134.96258153474315
10
45.014163126335525
20
-131.96258153474315
10
55.014163126335305
20
-131.9625815347429
10
55.014163126335418
20
-134.9625815347429
10
65.014163126335163
20
-134.96258153474264
10
65.014163126335049
20
-131.96258153474264
10
75.014163126334836
20
-131.96258153474241
10
75.014163126334964
20
-134.96258153474241
0
ENDSEC
0
SECTION
2
OBJECTS
0
DICTIONARY
5
C
100
AcDbDictionary
3
ACAD_GROUP
350
D
3
ACAD_MLINESTYLE
350
17
0
DICTIONARY
5
D
100
AcDbDictionary
0
DICTIONARY
5
1A
330
C
100
AcDbDictionary
0
DICTIONARY
5
17
100
AcDbDictionary
0
ENDSEC
0
EOF
