0
SECTION
2
HEADER
9
$INSUNITS
70
4
9
$ACADVER
1
AC1014
9
$HANDSEED
5
FFFF
0
ENDSEC
0
SECTION
2
TABLES
0
TABLE
2
VPORT
5
8
100
AcDbSymbolTable
0
ENDTAB
0
TABLE
2
LTYPE
5
5
100
AcDbSymbolTable
0
LTYPE
5
14
100
AcDbSymbolTableRecord
100
AcDbLinetypeTableRecord
2
BYBLOCK
70
0
0
LTYPE
5
15
100
AcDbSymbolTableRecord
100
AcDbLinetypeTableRecord
2
BYLAYER
70
0
0
ENDTAB
0
TABLE
2
LAYER
5
2
100
AcDbSymbolTable
70
2
0
LAYER
5
50
100
AcDbSymbolTableRecord
100
AcDbLayerTableRecord
2
0
70
0
6
CONTINUOUS
0
ENDTAB
0
TABLE
2
STYLE
5
3
100
AcDbSymbolTable
70
1
0
STYLE
5
11
100
AcDbSymbolTableRecord
100
AcDbTextStyleTableRecord
2
STANDARD
70
0
0
ENDTAB
0
TABLE
2
VIEW
5
6
100
AcDbSymbolTable
70
0
0
ENDTAB
0
TABLE
2
UCS
5
7
100
AcDbSymbolTable
70
0
0
ENDTAB
0
TABLE
2
APPID
5
9
100
AcDbSymbolTable
70
2
0
APPID
5
12
100
AcDbSymbolTableRecord
100
AcDbRegAppTableRecord
2
ACAD
70
0
0
ENDTAB
0
TABLE
2
DIMSTYLE
5
A
100
AcDbSymbolTable
70
1
0
ENDTAB
0
TABLE
2
BLOCK_RECORD
5
1
100
AcDbSymbolTable
70
1
0
BLOCK_RECORD
5
1F
100
AcDbSymbolTableRecord
100
AcDbBlockTableRecord
2
*MODEL_SPACE
0
BLOCK_RECORD
5
1B
100
AcDbSymbolTableRecord
100
AcDbBlockTableRecord
2
*PAPER_SPACE
0
ENDTAB
0
ENDSEC
0
SECTION
2
BLOCKS
0
BLOCK
5
20
100
AcDbEntity
100
AcDbBlockBegin
2
*MODEL_SPACE
0
ENDBLK
5
21
100
AcDbEntity
100
AcDbBlockEnd
0
BLOCK
5
1C
100
AcDbEntity
100
AcDbBlockBegin
2
*PAPER_SPACE
0
ENDBLK
5
1D
100
AcDbEntity
100
AcDbBlockEnd
0
ENDSEC
0
SECTION
2
ENTITIES
0
LWPOLYLINE
5
100
100
AcDbEntity
8
0
100
AcDbPolyline
90
4
70
1
43
0.0
10
-21.802204976690049
20
-141.99893726861268
10
-21.802204976688202
20
-215.99893726861265
10
108.19779502330911
20
-215.99893726861143
10
108.19779502330725
20
-141.99893726861146
0
LWPOLYLINE
5
101
100
AcDbEntity
8
0
100
AcDbPolyline
90
88
70
1
43
0.0
10
-26.802204976689062
20
-173.99893726861649
10
-23.802204976689119
20
-173.99893726861646
10
-23.80220497668936
20
-163.99893726861643
10
-26.802204976689303
20
-163.99893726861646
10
-26.802204976689559
20
-153.99893726861652
10
-23.802204976689616
20
-153.99893726861646
10
-23.802204976689858
20
-143.99893726861643
10
-26.802204976689804
20
-143.99893726861646
10
-26.802204976689982
20
-136.99893726861643
10
-16.802204976690188
20
-136.99893726861623
10
-16.802204976690302
20
-133.9989372686162
10
-6.8022049766905148
20
-133.99893726861595
10
-6.8022049766904091
20
-136.99893726861595
10
3.1977950233093861
20
-136.99893726861572
10
3.1977950233093058
20
-133.99893726861572
10
13.197795023309094
20
-133.99893726861546
10
13.197795023309201
20
-136.99893726861546
10
23.197795023308995
20
-136.99893726861524
10
23.197795023308881
20
-133.99893726861521
10
33.197795023308664
20
-133.99893726861495
10
33.197795023308771
20
-136.99893726861495
10
43.197795023308565
20
-136.99893726861472
10
43.197795023308451
20
-133.99893726861472
10
53.197795023308245
20
-133.99893726861447
10
53.197795023308359
20
-136.99893726861447
10
63.197795023308117
20
-136.99893726861427
10
63.197795023308004
20
-133.99893726861424
10
73.197795023307819
20
-133.99893726861399
10
73.197795023307933
20
-136.99893726861399
10
83.197795023307719
20
-136.99893726861376
10
83.197795023307606
20
-133.99893726861376
10
93.197795023307407
20
-133.99893726861347
10
93.197795023307535
20
-136.9989372686135
10
103.19779502330731
20
-136.99893726861325
10
103.19779502330718
20
-133.99893726861325
10
113.19779502330695
20
-133.99893726861143
10
113.19779502330469
20
-143.9989372686112
10
110.19779502330476
20
-143.99893726861126
10
110.19779502330465
20
-153.99893726861126
10
113.19779502330459
20
-153.9989372686112
10
113.19779502330488
20
-163.9989372686112
10
110.19779502330493
20
-163.99893726861123
10
110.19779502330519
20
-173.99893726861123
10
113.19779502330513
20
-173.99893726861114
10
113.1977950233054
20
-183.99893726861114
10
110.19779502330545
20
-183.9989372686112
10
110.19779502330572
20
-193.9989372686112
10
113.19779502330567
20
-193.99893726861114
10
113.1977950233059
20
-203.99893726861114
10
110.19779502330596
20
-203.9989372686112
10
110.19779502330621
20
-213.9989372686112
10
113.19779502330616
20
-213.99893726861114
10
113.19779502330914
20
-220.99893726861109
10
103.19779502330933
20
-220.9989372686112
10
103.1977950233094
20
-223.9989372686112
10
93.19779502330961
20
-223.99893726861126
10
93.197795023309524
20
-220.99893726861126
10
83.197795023309737
20
-220.99893726861131
10
83.197795023309808
20
-223.99893726861131
10
73.197795023310022
20
-223.9989372686114
10
73.197795023309965
20
-220.9989372686114
10
63.197795023310164
20
-220.99893726861148
10
63.197795023310228
20
-223.99893726861143
10
53.197795023310448
20
-223.99893726861151
10
53.197795023310384
20
-220.99893726861151
10
43.19779502331059
20
-220.9989372686116
10
43.197795023310668
20
-223.99893726861163
10
33.197795023310881
20
-223.99893726861168
10
33.19779502331081
20
-220.99893726861166
10
23.197795023311013
20
-220.99893726861171
10
23.197795023311091
20
-223.99893726861171
10
13.197795023311304
20
-223.99893726861183
10
13.197795023311198
20
-220.99893726861183
10
3.1977950233114032
20
-220.99893726861188
10
3.1977950233114836
20
-223.99893726861188
10
-6.802204976688305
20
-223.99893726861194
10
-6.8022049766883743
20
-220.99893726861194
10
-16.80220497668817
20
-220.99893726861205
10
-16.802204976688092
20
-223.998937268612
10
-26.802204976687882
20
-223.99893726861265
10
-26.802204976688067
20
-213.99893726861646
10
-23.802204976688124
20
-213.99893726861643
10
-23.802204976688365
20
-203.99893726861637
10
-26.802204976688309
20
-203.99893726861643
10
-26.802204976688564
20
-193.99893726861646
10
-23.802204976688621
20
-193.99893726861643
10
-23.802204976688863
20
-183.99893726861637
10
-26.802204976688806
20
-183.99893726861646
0
ENDSEC
0
SECTION
2
OBJECTS
0
DICTIONARY
5
C
100
AcDbDictionary
3
ACAD_GROUP
350
D
3
ACAD_MLINESTYLE
350
17
0
DICTIONARY
5
D
100
AcDbDictionary
0
DICTIONARY
5
1A
330
C
100
AcDbDictionary
0
DICTIONARY
5
17
100
AcDbDictionary
0
ENDSEC
0
EOF
